<mxfile host="app.diagrams.net" agent="Mozilla/5.0 (Windows NT 10.0; Win64; x64) AppleWebKit/537.36 (KHTML, like Gecko) Chrome/128.0.0.0 Safari/537.36" version="24.7.7">
  <diagram name="Page-1" id="4kwb-xGvtUNPgCkUU1bV">
    <mxGraphModel dx="4654" dy="6267" grid="0" gridSize="10" guides="1" tooltips="1" connect="1" arrows="1" fold="1" page="1" pageScale="1" pageWidth="827" pageHeight="1169" math="0" shadow="0">
      <root>
        <mxCell id="0" />
        <mxCell id="1" parent="0" />
        <mxCell id="tSYuindEu_LQoV4ezEsY-14" value="Computer 2" style="text;html=1;align=center;verticalAlign=middle;resizable=0;points=[];autosize=1;strokeColor=none;fillColor=none;fontSize=29;" parent="1" vertex="1">
          <mxGeometry x="-920" y="-2600" width="180" height="50" as="geometry" />
        </mxCell>
        <mxCell id="tSYuindEu_LQoV4ezEsY-15" value="Computer 3" style="text;html=1;align=center;verticalAlign=middle;resizable=0;points=[];autosize=1;strokeColor=none;fillColor=none;fontSize=29;" parent="1" vertex="1">
          <mxGeometry x="-960" y="-2419.5" width="180" height="50" as="geometry" />
        </mxCell>
        <mxCell id="tSYuindEu_LQoV4ezEsY-30" value="Cloud" style="text;html=1;align=center;verticalAlign=middle;resizable=0;points=[];autosize=1;strokeColor=none;fillColor=none;fontSize=40;" parent="1" vertex="1">
          <mxGeometry x="60" y="-3700" width="130" height="60" as="geometry" />
        </mxCell>
        <mxCell id="tSYuindEu_LQoV4ezEsY-33" value="" style="group" parent="1" vertex="1" connectable="0">
          <mxGeometry x="-890" y="-3640" width="2020" height="1355" as="geometry" />
        </mxCell>
        <mxCell id="jLfydcsiRdIBJY46613g-1" value="" style="image;aspect=fixed;perimeter=ellipsePerimeter;html=1;align=center;shadow=0;dashed=0;spacingTop=3;image=img/lib/active_directory/internet_cloud.svg;direction=east;" parent="tSYuindEu_LQoV4ezEsY-33" vertex="1">
          <mxGeometry x="920" width="210" height="132.3" as="geometry" />
        </mxCell>
        <mxCell id="jLfydcsiRdIBJY46613g-2" value="" style="image;aspect=fixed;perimeter=ellipsePerimeter;html=1;align=center;shadow=0;dashed=0;spacingTop=3;image=img/lib/active_directory/firewall.svg;direction=east;" parent="tSYuindEu_LQoV4ezEsY-33" vertex="1">
          <mxGeometry x="352.25" y="300" width="70.5" height="115.57" as="geometry" />
        </mxCell>
        <mxCell id="jLfydcsiRdIBJY46613g-3" value="" style="image;aspect=fixed;perimeter=ellipsePerimeter;html=1;align=center;shadow=0;dashed=0;spacingTop=3;image=img/lib/active_directory/firewall.svg;" parent="tSYuindEu_LQoV4ezEsY-33" vertex="1">
          <mxGeometry x="1574.5" y="300" width="70.5" height="115.57" as="geometry" />
        </mxCell>
        <mxCell id="jLfydcsiRdIBJY46613g-4" value="" style="image;html=1;image=img/lib/clip_art/networking/Router_Icon_128x128.png" parent="tSYuindEu_LQoV4ezEsY-33" vertex="1">
          <mxGeometry x="330" y="550" width="80" height="80" as="geometry" />
        </mxCell>
        <mxCell id="jLfydcsiRdIBJY46613g-5" value="" style="image;html=1;image=img/lib/clip_art/networking/Router_Icon_128x128.png" parent="tSYuindEu_LQoV4ezEsY-33" vertex="1">
          <mxGeometry x="1550" y="550" width="80" height="80" as="geometry" />
        </mxCell>
        <mxCell id="jLfydcsiRdIBJY46613g-6" value="" style="html=1;strokeWidth=1;shadow=0;dashed=0;shape=mxgraph.ios7.misc.switch;fillColor=#8F8E94;strokeColor=none;buttonText=;strokeColor2=#222222;fontColor=#222222;fontSize=8;verticalLabelPosition=bottom;verticalAlign=top;align=center;sketch=0;" parent="tSYuindEu_LQoV4ezEsY-33" vertex="1">
          <mxGeometry x="340" y="800" width="95" height="75" as="geometry" />
        </mxCell>
        <mxCell id="jLfydcsiRdIBJY46613g-9" value="" style="html=1;strokeWidth=1;shadow=0;dashed=0;shape=mxgraph.ios7.misc.switch;fillColor=#8F8E94;strokeColor=none;buttonText=;strokeColor2=#222222;fontColor=#222222;fontSize=8;verticalLabelPosition=bottom;verticalAlign=top;align=center;sketch=0;" parent="tSYuindEu_LQoV4ezEsY-33" vertex="1">
          <mxGeometry x="1550" y="820" width="95" height="75" as="geometry" />
        </mxCell>
        <mxCell id="jLfydcsiRdIBJY46613g-11" value="Printer" style="image;html=1;image=img/lib/clip_art/computers/Printer_128x128.png;fontSize=29;" parent="tSYuindEu_LQoV4ezEsY-33" vertex="1">
          <mxGeometry x="650" y="860" width="130.25" height="100" as="geometry" />
        </mxCell>
        <mxCell id="jLfydcsiRdIBJY46613g-12" value="" style="image;html=1;image=img/lib/clip_art/computers/Printer_128x128.png" parent="tSYuindEu_LQoV4ezEsY-33" vertex="1">
          <mxGeometry x="1290" y="860" width="150.25" height="100" as="geometry" />
        </mxCell>
        <mxCell id="jLfydcsiRdIBJY46613g-13" value="" style="verticalLabelPosition=bottom;html=1;verticalAlign=top;align=center;strokeColor=none;fillColor=#00BEF2;shape=mxgraph.azure.computer;pointerEvents=1;" parent="tSYuindEu_LQoV4ezEsY-33" vertex="1">
          <mxGeometry x="80" y="920" width="80" height="70" as="geometry" />
        </mxCell>
        <mxCell id="jLfydcsiRdIBJY46613g-14" value="" style="verticalLabelPosition=bottom;html=1;verticalAlign=top;align=center;strokeColor=none;fillColor=#00BEF2;shape=mxgraph.azure.computer;pointerEvents=1;" parent="tSYuindEu_LQoV4ezEsY-33" vertex="1">
          <mxGeometry x="90" y="1100" width="70" height="70" as="geometry" />
        </mxCell>
        <mxCell id="jLfydcsiRdIBJY46613g-15" value="" style="verticalLabelPosition=bottom;html=1;verticalAlign=top;align=center;strokeColor=none;fillColor=#00BEF2;shape=mxgraph.azure.computer;pointerEvents=1;" parent="tSYuindEu_LQoV4ezEsY-33" vertex="1">
          <mxGeometry x="680" y="1090" width="80" height="80" as="geometry" />
        </mxCell>
        <mxCell id="jLfydcsiRdIBJY46613g-16" value="" style="verticalLabelPosition=bottom;html=1;verticalAlign=top;align=center;strokeColor=none;fillColor=#00BEF2;shape=mxgraph.azure.computer;pointerEvents=1;" parent="tSYuindEu_LQoV4ezEsY-33" vertex="1">
          <mxGeometry x="90" y="1280" width="70" height="70" as="geometry" />
        </mxCell>
        <mxCell id="jLfydcsiRdIBJY46613g-17" value="" style="verticalLabelPosition=bottom;html=1;verticalAlign=top;align=center;strokeColor=none;fillColor=#00BEF2;shape=mxgraph.azure.computer;pointerEvents=1;" parent="tSYuindEu_LQoV4ezEsY-33" vertex="1">
          <mxGeometry x="680" y="1271" width="80" height="79" as="geometry" />
        </mxCell>
        <mxCell id="jLfydcsiRdIBJY46613g-18" value="" style="verticalLabelPosition=bottom;html=1;verticalAlign=top;align=center;strokeColor=none;fillColor=#00BEF2;shape=mxgraph.azure.computer;pointerEvents=1;" parent="tSYuindEu_LQoV4ezEsY-33" vertex="1">
          <mxGeometry x="1770" y="1090" width="80" height="80" as="geometry" />
        </mxCell>
        <mxCell id="jLfydcsiRdIBJY46613g-19" value="" style="verticalLabelPosition=bottom;html=1;verticalAlign=top;align=center;strokeColor=none;fillColor=#00BEF2;shape=mxgraph.azure.computer;pointerEvents=1;" parent="tSYuindEu_LQoV4ezEsY-33" vertex="1">
          <mxGeometry x="1781" y="1270.5" width="80" height="80" as="geometry" />
        </mxCell>
        <mxCell id="jLfydcsiRdIBJY46613g-20" value="" style="verticalLabelPosition=bottom;html=1;verticalAlign=top;align=center;strokeColor=none;fillColor=#00BEF2;shape=mxgraph.azure.computer;pointerEvents=1;" parent="tSYuindEu_LQoV4ezEsY-33" vertex="1">
          <mxGeometry x="1320" y="1090" width="80" height="80" as="geometry" />
        </mxCell>
        <mxCell id="jLfydcsiRdIBJY46613g-21" value="" style="verticalLabelPosition=bottom;html=1;verticalAlign=top;align=center;strokeColor=none;fillColor=#00BEF2;shape=mxgraph.azure.computer;pointerEvents=1;" parent="tSYuindEu_LQoV4ezEsY-33" vertex="1">
          <mxGeometry x="1327" y="1275" width="80" height="80" as="geometry" />
        </mxCell>
        <mxCell id="jLfydcsiRdIBJY46613g-22" value="" style="shape=flexArrow;endArrow=classic;startArrow=classic;html=1;rounded=0;exitX=1;exitY=0.25;exitDx=0;exitDy=0;fillColor=#d5e8d4;strokeColor=#82b366;gradientColor=#97d077;" parent="tSYuindEu_LQoV4ezEsY-33" source="jLfydcsiRdIBJY46613g-2" edge="1">
          <mxGeometry width="100" height="100" relative="1" as="geometry">
            <mxPoint x="780" y="460" as="sourcePoint" />
            <mxPoint x="680" y="333" as="targetPoint" />
            <Array as="points" />
          </mxGeometry>
        </mxCell>
        <mxCell id="jLfydcsiRdIBJY46613g-26" value="" style="shape=flexArrow;endArrow=classic;startArrow=classic;html=1;rounded=0;exitX=0.75;exitY=0;exitDx=0;exitDy=0;fillColor=#d5e8d4;gradientColor=#97d077;strokeColor=#82b366;entryX=0.5;entryY=1;entryDx=0;entryDy=0;" parent="tSYuindEu_LQoV4ezEsY-33" source="jLfydcsiRdIBJY46613g-4" target="jLfydcsiRdIBJY46613g-2" edge="1">
          <mxGeometry width="100" height="100" relative="1" as="geometry">
            <mxPoint x="580" y="610" as="sourcePoint" />
            <mxPoint x="680" y="510" as="targetPoint" />
          </mxGeometry>
        </mxCell>
        <mxCell id="jLfydcsiRdIBJY46613g-27" value="" style="shape=flexArrow;endArrow=classic;startArrow=classic;html=1;rounded=0;fillColor=#d5e8d4;gradientColor=#97d077;strokeColor=#82b366;width=12.5;endSize=6.7;" parent="tSYuindEu_LQoV4ezEsY-33" edge="1">
          <mxGeometry width="100" height="100" relative="1" as="geometry">
            <mxPoint x="380" y="800" as="sourcePoint" />
            <mxPoint x="380" y="610" as="targetPoint" />
          </mxGeometry>
        </mxCell>
        <mxCell id="jLfydcsiRdIBJY46613g-28" value="" style="shape=flexArrow;endArrow=classic;startArrow=classic;html=1;rounded=0;entryX=0;entryY=0.25;entryDx=0;entryDy=0;fillColor=#d5e8d4;gradientColor=#97d077;strokeColor=#82b366;" parent="tSYuindEu_LQoV4ezEsY-33" target="jLfydcsiRdIBJY46613g-3" edge="1">
          <mxGeometry width="100" height="100" relative="1" as="geometry">
            <mxPoint x="1330" y="330" as="sourcePoint" />
            <mxPoint x="310" y="840" as="targetPoint" />
          </mxGeometry>
        </mxCell>
        <mxCell id="jLfydcsiRdIBJY46613g-29" value="" style="shape=flexArrow;endArrow=classic;startArrow=classic;html=1;rounded=0;exitX=0.5;exitY=0;exitDx=0;exitDy=0;fillColor=#d5e8d4;gradientColor=#97d077;strokeColor=#82b366;entryX=0.25;entryY=1;entryDx=0;entryDy=0;" parent="tSYuindEu_LQoV4ezEsY-33" source="jLfydcsiRdIBJY46613g-5" target="jLfydcsiRdIBJY46613g-3" edge="1">
          <mxGeometry width="100" height="100" relative="1" as="geometry">
            <mxPoint x="1230" y="630" as="sourcePoint" />
            <mxPoint x="1330" y="530" as="targetPoint" />
          </mxGeometry>
        </mxCell>
        <mxCell id="jLfydcsiRdIBJY46613g-31" value="" style="endArrow=classic;startArrow=classic;html=1;rounded=0;exitX=0.98;exitY=0.02;exitDx=0;exitDy=0;exitPerimeter=0;" parent="tSYuindEu_LQoV4ezEsY-33" source="jLfydcsiRdIBJY46613g-13" edge="1">
          <mxGeometry width="50" height="50" relative="1" as="geometry">
            <mxPoint x="290" y="910" as="sourcePoint" />
            <mxPoint x="340" y="860" as="targetPoint" />
          </mxGeometry>
        </mxCell>
        <mxCell id="jLfydcsiRdIBJY46613g-32" value="" style="endArrow=classic;startArrow=classic;html=1;rounded=0;exitX=0;exitY=0.25;exitDx=0;exitDy=0;" parent="tSYuindEu_LQoV4ezEsY-33" source="jLfydcsiRdIBJY46613g-11" edge="1">
          <mxGeometry width="50" height="50" relative="1" as="geometry">
            <mxPoint x="390" y="910" as="sourcePoint" />
            <mxPoint x="440" y="860" as="targetPoint" />
          </mxGeometry>
        </mxCell>
        <mxCell id="jLfydcsiRdIBJY46613g-33" value="" style="endArrow=classic;startArrow=classic;html=1;rounded=0;exitX=0.98;exitY=0.02;exitDx=0;exitDy=0;exitPerimeter=0;" parent="tSYuindEu_LQoV4ezEsY-33" source="jLfydcsiRdIBJY46613g-14" edge="1">
          <mxGeometry width="50" height="50" relative="1" as="geometry">
            <mxPoint x="180" y="1090" as="sourcePoint" />
            <mxPoint x="360" y="890" as="targetPoint" />
          </mxGeometry>
        </mxCell>
        <mxCell id="jLfydcsiRdIBJY46613g-34" value="" style="endArrow=classic;startArrow=classic;html=1;rounded=0;exitX=0.02;exitY=0.02;exitDx=0;exitDy=0;exitPerimeter=0;" parent="tSYuindEu_LQoV4ezEsY-33" source="jLfydcsiRdIBJY46613g-15" edge="1">
          <mxGeometry width="50" height="50" relative="1" as="geometry">
            <mxPoint x="380" y="930" as="sourcePoint" />
            <mxPoint x="430" y="880" as="targetPoint" />
          </mxGeometry>
        </mxCell>
        <mxCell id="jLfydcsiRdIBJY46613g-35" value="" style="endArrow=classic;startArrow=classic;html=1;rounded=0;exitX=0.98;exitY=0.02;exitDx=0;exitDy=0;exitPerimeter=0;" parent="tSYuindEu_LQoV4ezEsY-33" source="jLfydcsiRdIBJY46613g-16" edge="1">
          <mxGeometry width="50" height="50" relative="1" as="geometry">
            <mxPoint x="170" y="1220" as="sourcePoint" />
            <mxPoint x="390" y="880" as="targetPoint" />
          </mxGeometry>
        </mxCell>
        <mxCell id="jLfydcsiRdIBJY46613g-36" value="" style="endArrow=classic;startArrow=classic;html=1;rounded=0;exitX=0.02;exitY=0.02;exitDx=0;exitDy=0;exitPerimeter=0;" parent="tSYuindEu_LQoV4ezEsY-33" source="jLfydcsiRdIBJY46613g-17" edge="1">
          <mxGeometry width="50" height="50" relative="1" as="geometry">
            <mxPoint x="350" y="930" as="sourcePoint" />
            <mxPoint x="400" y="880" as="targetPoint" />
          </mxGeometry>
        </mxCell>
        <mxCell id="jLfydcsiRdIBJY46613g-37" value="" style="endArrow=classic;startArrow=classic;html=1;rounded=0;exitX=1;exitY=0.5;exitDx=0;exitDy=0;" parent="tSYuindEu_LQoV4ezEsY-33" source="jLfydcsiRdIBJY46613g-12" edge="1">
          <mxGeometry width="50" height="50" relative="1" as="geometry">
            <mxPoint x="1500" y="900" as="sourcePoint" />
            <mxPoint x="1550" y="850" as="targetPoint" />
          </mxGeometry>
        </mxCell>
        <mxCell id="jLfydcsiRdIBJY46613g-38" value="" style="endArrow=classic;startArrow=classic;html=1;rounded=0;exitX=0.98;exitY=0.02;exitDx=0;exitDy=0;exitPerimeter=0;" parent="tSYuindEu_LQoV4ezEsY-33" source="jLfydcsiRdIBJY46613g-20" edge="1">
          <mxGeometry width="50" height="50" relative="1" as="geometry">
            <mxPoint x="1510" y="940" as="sourcePoint" />
            <mxPoint x="1560" y="890" as="targetPoint" />
          </mxGeometry>
        </mxCell>
        <mxCell id="jLfydcsiRdIBJY46613g-39" value="" style="endArrow=classic;startArrow=classic;html=1;rounded=0;exitX=0.5;exitY=0;exitDx=0;exitDy=0;exitPerimeter=0;" parent="tSYuindEu_LQoV4ezEsY-33" source="jLfydcsiRdIBJY46613g-18" edge="1">
          <mxGeometry width="50" height="50" relative="1" as="geometry">
            <mxPoint x="1600" y="940" as="sourcePoint" />
            <mxPoint x="1650" y="890" as="targetPoint" />
          </mxGeometry>
        </mxCell>
        <mxCell id="jLfydcsiRdIBJY46613g-40" value="" style="endArrow=classic;startArrow=classic;html=1;rounded=0;exitX=0.98;exitY=0.02;exitDx=0;exitDy=0;exitPerimeter=0;" parent="tSYuindEu_LQoV4ezEsY-33" source="jLfydcsiRdIBJY46613g-21" edge="1">
          <mxGeometry width="50" height="50" relative="1" as="geometry">
            <mxPoint x="1540" y="950" as="sourcePoint" />
            <mxPoint x="1590" y="900" as="targetPoint" />
          </mxGeometry>
        </mxCell>
        <mxCell id="jLfydcsiRdIBJY46613g-41" value="" style="endArrow=classic;startArrow=classic;html=1;rounded=0;exitX=0.02;exitY=0.02;exitDx=0;exitDy=0;exitPerimeter=0;" parent="tSYuindEu_LQoV4ezEsY-33" source="jLfydcsiRdIBJY46613g-19" edge="1">
          <mxGeometry width="50" height="50" relative="1" as="geometry">
            <mxPoint x="1570" y="950" as="sourcePoint" />
            <mxPoint x="1620" y="900" as="targetPoint" />
          </mxGeometry>
        </mxCell>
        <mxCell id="jLfydcsiRdIBJY46613g-43" value="" style="shape=flexArrow;endArrow=classic;startArrow=classic;html=1;rounded=0;fillColor=#d5e8d4;gradientColor=#97d077;strokeColor=#82b366;" parent="tSYuindEu_LQoV4ezEsY-33" target="jLfydcsiRdIBJY46613g-5" edge="1">
          <mxGeometry width="100" height="100" relative="1" as="geometry">
            <mxPoint x="1598" y="810" as="sourcePoint" />
            <mxPoint x="1500" y="700" as="targetPoint" />
          </mxGeometry>
        </mxCell>
        <mxCell id="tSYuindEu_LQoV4ezEsY-2" value="" style="image;html=1;image=img/lib/clip_art/networking/Wireless_Router_128x128.png" parent="tSYuindEu_LQoV4ezEsY-33" vertex="1">
          <mxGeometry x="680" y="252.25" width="110" height="110" as="geometry" />
        </mxCell>
        <mxCell id="tSYuindEu_LQoV4ezEsY-3" value="" style="image;html=1;image=img/lib/clip_art/networking/Wireless_Router_128x128.png" parent="tSYuindEu_LQoV4ezEsY-33" vertex="1">
          <mxGeometry x="1170" y="262.25" width="190" height="107.75" as="geometry" />
        </mxCell>
        <mxCell id="tSYuindEu_LQoV4ezEsY-4" value="" style="shape=flexArrow;endArrow=classic;startArrow=classic;html=1;rounded=0;exitX=1;exitY=0.5;exitDx=0;exitDy=0;entryX=0.147;entryY=0.978;entryDx=0;entryDy=0;entryPerimeter=0;fillColor=#d5e8d4;strokeColor=#82b366;" parent="tSYuindEu_LQoV4ezEsY-33" source="tSYuindEu_LQoV4ezEsY-2" target="jLfydcsiRdIBJY46613g-1" edge="1">
          <mxGeometry width="100" height="100" relative="1" as="geometry">
            <mxPoint x="1110" y="470" as="sourcePoint" />
            <mxPoint x="1210" y="370" as="targetPoint" />
          </mxGeometry>
        </mxCell>
        <mxCell id="tSYuindEu_LQoV4ezEsY-5" value="" style="shape=flexArrow;endArrow=classic;startArrow=classic;html=1;rounded=0;exitX=0.75;exitY=1;exitDx=0;exitDy=0;fillColor=#d5e8d4;strokeColor=#82b366;" parent="tSYuindEu_LQoV4ezEsY-33" source="jLfydcsiRdIBJY46613g-1" target="tSYuindEu_LQoV4ezEsY-3" edge="1">
          <mxGeometry width="100" height="100" relative="1" as="geometry">
            <mxPoint x="1110" y="470" as="sourcePoint" />
            <mxPoint x="1210" y="370" as="targetPoint" />
          </mxGeometry>
        </mxCell>
        <mxCell id="tSYuindEu_LQoV4ezEsY-13" value="Computer 1" style="text;html=1;align=center;verticalAlign=middle;resizable=0;points=[];autosize=1;strokeColor=none;fillColor=none;fontSize=29;" parent="tSYuindEu_LQoV4ezEsY-33" vertex="1">
          <mxGeometry y="860" width="180" height="50" as="geometry" />
        </mxCell>
        <mxCell id="tSYuindEu_LQoV4ezEsY-16" value="Computer 4" style="text;html=1;align=center;verticalAlign=middle;resizable=0;points=[];autosize=1;strokeColor=none;fillColor=none;fontSize=32;" parent="tSYuindEu_LQoV4ezEsY-33" vertex="1">
          <mxGeometry x="685" y="1048" width="190" height="50" as="geometry" />
        </mxCell>
        <mxCell id="tSYuindEu_LQoV4ezEsY-18" value="Computer 1" style="text;html=1;align=center;verticalAlign=middle;resizable=0;points=[];autosize=1;strokeColor=none;fillColor=none;fontSize=29;" parent="tSYuindEu_LQoV4ezEsY-33" vertex="1">
          <mxGeometry x="1200" y="1040" width="180" height="50" as="geometry" />
        </mxCell>
        <mxCell id="tSYuindEu_LQoV4ezEsY-19" value="Computer 2" style="text;html=1;align=center;verticalAlign=middle;resizable=0;points=[];autosize=1;strokeColor=none;fillColor=none;fontSize=29;" parent="tSYuindEu_LQoV4ezEsY-33" vertex="1">
          <mxGeometry x="1180" y="1221" width="180" height="50" as="geometry" />
        </mxCell>
        <mxCell id="tSYuindEu_LQoV4ezEsY-20" value="Computer 3" style="text;html=1;align=center;verticalAlign=middle;resizable=0;points=[];autosize=1;strokeColor=none;fillColor=none;fontSize=29;" parent="tSYuindEu_LQoV4ezEsY-33" vertex="1">
          <mxGeometry x="1821" y="1030" width="180" height="50" as="geometry" />
        </mxCell>
        <mxCell id="tSYuindEu_LQoV4ezEsY-21" value="Computer 4" style="text;html=1;align=center;verticalAlign=middle;resizable=0;points=[];autosize=1;strokeColor=none;fillColor=none;fontSize=32;" parent="tSYuindEu_LQoV4ezEsY-33" vertex="1">
          <mxGeometry x="1830" y="1220.5" width="190" height="50" as="geometry" />
        </mxCell>
        <mxCell id="tSYuindEu_LQoV4ezEsY-22" value="Switch" style="text;html=1;align=center;verticalAlign=middle;resizable=0;points=[];autosize=1;strokeColor=none;fillColor=none;fontSize=31;" parent="tSYuindEu_LQoV4ezEsY-33" vertex="1">
          <mxGeometry x="405" y="748" width="110" height="50" as="geometry" />
        </mxCell>
        <mxCell id="tSYuindEu_LQoV4ezEsY-23" value="Switch" style="text;html=1;align=center;verticalAlign=middle;resizable=0;points=[];autosize=1;strokeColor=none;fillColor=none;fontSize=31;" parent="tSYuindEu_LQoV4ezEsY-33" vertex="1">
          <mxGeometry x="1630" y="780" width="110" height="50" as="geometry" />
        </mxCell>
        <mxCell id="tSYuindEu_LQoV4ezEsY-24" value="Router" style="text;html=1;align=center;verticalAlign=middle;resizable=0;points=[];autosize=1;strokeColor=none;fillColor=none;fontSize=32;" parent="tSYuindEu_LQoV4ezEsY-33" vertex="1">
          <mxGeometry x="410" y="560" width="120" height="50" as="geometry" />
        </mxCell>
        <mxCell id="tSYuindEu_LQoV4ezEsY-25" value="Router" style="text;html=1;align=center;verticalAlign=middle;resizable=0;points=[];autosize=1;strokeColor=none;fillColor=none;fontSize=32;" parent="tSYuindEu_LQoV4ezEsY-33" vertex="1">
          <mxGeometry x="670" y="360" width="120" height="50" as="geometry" />
        </mxCell>
        <mxCell id="tSYuindEu_LQoV4ezEsY-26" value="Router" style="text;html=1;align=center;verticalAlign=middle;resizable=0;points=[];autosize=1;strokeColor=none;fillColor=none;fontSize=32;" parent="tSYuindEu_LQoV4ezEsY-33" vertex="1">
          <mxGeometry x="1200" y="370" width="120" height="50" as="geometry" />
        </mxCell>
        <mxCell id="tSYuindEu_LQoV4ezEsY-27" value="Router" style="text;html=1;align=center;verticalAlign=middle;resizable=0;points=[];autosize=1;strokeColor=none;fillColor=none;fontSize=32;" parent="tSYuindEu_LQoV4ezEsY-33" vertex="1">
          <mxGeometry x="1630" y="560" width="120" height="50" as="geometry" />
        </mxCell>
        <mxCell id="tSYuindEu_LQoV4ezEsY-28" value="Firewall" style="text;html=1;align=center;verticalAlign=middle;resizable=0;points=[];autosize=1;strokeColor=none;fillColor=none;fontSize=34;" parent="tSYuindEu_LQoV4ezEsY-33" vertex="1">
          <mxGeometry x="295" y="252.25" width="140" height="50" as="geometry" />
        </mxCell>
        <mxCell id="tSYuindEu_LQoV4ezEsY-29" value="Firewall" style="text;html=1;align=center;verticalAlign=middle;resizable=0;points=[];autosize=1;strokeColor=none;fillColor=none;fontSize=34;" parent="tSYuindEu_LQoV4ezEsY-33" vertex="1">
          <mxGeometry x="1620" y="282.25" width="140" height="50" as="geometry" />
        </mxCell>
        <mxCell id="nRySBWIHI-6aAbYzD3Ra-1" value="Auckland Site" style="text;html=1;align=center;verticalAlign=middle;whiteSpace=wrap;rounded=0;fontSize=60;" vertex="1" parent="tSYuindEu_LQoV4ezEsY-33">
          <mxGeometry x="224" y="-40" width="401" height="201" as="geometry" />
        </mxCell>
        <mxCell id="nRySBWIHI-6aAbYzD3Ra-3" value="Wellington Site" style="text;html=1;align=center;verticalAlign=middle;whiteSpace=wrap;rounded=0;fontSize=60;" vertex="1" parent="tSYuindEu_LQoV4ezEsY-33">
          <mxGeometry x="1472" y="-65" width="419" height="279" as="geometry" />
        </mxCell>
        <mxCell id="nRySBWIHI-6aAbYzD3Ra-4" value="Security computer" style="text;html=1;align=center;verticalAlign=middle;whiteSpace=wrap;rounded=0;fontSize=30;" vertex="1" parent="tSYuindEu_LQoV4ezEsY-33">
          <mxGeometry x="698" y="1180" width="242" height="126" as="geometry" />
        </mxCell>
        <mxCell id="nRySBWIHI-6aAbYzD3Ra-5" value="Printer" style="text;html=1;align=center;verticalAlign=middle;whiteSpace=wrap;rounded=0;fontSize=30;" vertex="1" parent="tSYuindEu_LQoV4ezEsY-33">
          <mxGeometry x="1112" y="877" width="348" height="179" as="geometry" />
        </mxCell>
      </root>
    </mxGraphModel>
  </diagram>
</mxfile>
